<mxfile host="app.diagrams.net" agent="Mozilla/5.0 (Macintosh; Intel Mac OS X 10_15_7) AppleWebKit/605.1.15 (KHTML, like Gecko) Version/17.5 Safari/605.1.15" version="24.7.12">
  <diagram name="第 1 页" id="hIs-Wmx7K9Ux-LxWio35">
    <mxGraphModel dx="658" dy="801" grid="1" gridSize="10" guides="1" tooltips="1" connect="1" arrows="1" fold="1" page="1" pageScale="1" pageWidth="827" pageHeight="1169" math="0" shadow="0">
      <root>
        <mxCell id="0" />
        <mxCell id="1" parent="0" />
        <mxCell id="KWCy8iFK6t6dK1so9Yj5-51" value="" style="group;strokeColor=none;dashed=1;strokeWidth=2;" vertex="1" connectable="0" parent="1">
          <mxGeometry x="170" y="330" width="109" height="100" as="geometry" />
        </mxCell>
        <mxCell id="KWCy8iFK6t6dK1so9Yj5-8" value="SQL转换例子" style="text;html=1;align=center;verticalAlign=middle;whiteSpace=wrap;rounded=0;fontSize=16;" vertex="1" parent="KWCy8iFK6t6dK1so9Yj5-51">
          <mxGeometry y="70" width="109" height="30" as="geometry" />
        </mxCell>
        <mxCell id="KWCy8iFK6t6dK1so9Yj5-42" value="" style="shape=image;html=1;verticalAlign=top;verticalLabelPosition=bottom;labelBackgroundColor=#ffffff;imageAspect=0;aspect=fixed;image=https://cdn2.iconfinder.com/data/icons/gnomeicontheme/48x48/stock/generic/stock_example.png" vertex="1" parent="KWCy8iFK6t6dK1so9Yj5-51">
          <mxGeometry x="19.5" width="70" height="70" as="geometry" />
        </mxCell>
        <mxCell id="KWCy8iFK6t6dK1so9Yj5-52" value="" style="group;dashed=1;strokeWidth=2;strokeColor=none;" vertex="1" connectable="0" parent="1">
          <mxGeometry x="308.52" y="330" width="91" height="100" as="geometry" />
        </mxCell>
        <mxCell id="KWCy8iFK6t6dK1so9Yj5-34" value="抽象语法树" style="text;html=1;align=center;verticalAlign=middle;whiteSpace=wrap;rounded=0;fontSize=16;" vertex="1" parent="KWCy8iFK6t6dK1so9Yj5-52">
          <mxGeometry y="70" width="91" height="30" as="geometry" />
        </mxCell>
        <mxCell id="KWCy8iFK6t6dK1so9Yj5-38" value="" style="sketch=0;outlineConnect=0;fontColor=#ffffff;fillColor=#647687;strokeColor=#314354;dashed=0;verticalLabelPosition=bottom;verticalAlign=top;align=center;html=1;fontSize=12;fontStyle=0;aspect=fixed;pointerEvents=1;shape=mxgraph.aws4.iot_sitewise_asset_hierarchy;" vertex="1" parent="KWCy8iFK6t6dK1so9Yj5-52">
          <mxGeometry x="15.5" width="60" height="60" as="geometry" />
        </mxCell>
        <mxCell id="KWCy8iFK6t6dK1so9Yj5-59" value="" style="group;strokeColor=none;dashed=1;strokeWidth=2;" vertex="1" connectable="0" parent="1">
          <mxGeometry x="310" y="580" width="76.25" height="94" as="geometry" />
        </mxCell>
        <mxCell id="KWCy8iFK6t6dK1so9Yj5-41" value="" style="verticalLabelPosition=bottom;html=1;verticalAlign=top;align=center;strokeColor=#6F0000;fillColor=#a20025;shape=mxgraph.azure.code_file;pointerEvents=1;fontColor=#ffffff;" vertex="1" parent="KWCy8iFK6t6dK1so9Yj5-59">
          <mxGeometry x="14.370000000000005" width="47.5" height="50" as="geometry" />
        </mxCell>
        <mxCell id="KWCy8iFK6t6dK1so9Yj5-48" value="DWF&lt;div style=&quot;font-size: 16px;&quot;&gt;代码仓库&lt;/div&gt;" style="text;html=1;align=center;verticalAlign=middle;whiteSpace=wrap;rounded=0;fontSize=16;" vertex="1" parent="KWCy8iFK6t6dK1so9Yj5-59">
          <mxGeometry y="64" width="76.25" height="30" as="geometry" />
        </mxCell>
        <mxCell id="KWCy8iFK6t6dK1so9Yj5-84" value="" style="endArrow=classic;html=1;rounded=0;entryX=-0.029;entryY=0.862;entryDx=0;entryDy=0;entryPerimeter=0;" edge="1" parent="KWCy8iFK6t6dK1so9Yj5-59" target="KWCy8iFK6t6dK1so9Yj5-78">
          <mxGeometry width="50" height="50" relative="1" as="geometry">
            <mxPoint x="80" y="40" as="sourcePoint" />
            <mxPoint x="120" y="10" as="targetPoint" />
          </mxGeometry>
        </mxCell>
        <mxCell id="KWCy8iFK6t6dK1so9Yj5-60" value="" style="group;strokeColor=none;dashed=1;strokeWidth=2;" vertex="1" connectable="0" parent="1">
          <mxGeometry x="600" y="590" width="79.5" height="94" as="geometry" />
        </mxCell>
        <mxCell id="KWCy8iFK6t6dK1so9Yj5-47" value="" style="sketch=0;aspect=fixed;pointerEvents=1;shadow=0;dashed=0;html=1;strokeColor=#6F0000;labelPosition=center;verticalLabelPosition=bottom;verticalAlign=top;align=center;fillColor=#a20025;shape=mxgraph.mscae.enterprise.code_file;fontColor=#ffffff;" vertex="1" parent="KWCy8iFK6t6dK1so9Yj5-60">
          <mxGeometry x="15.25" width="49" height="50" as="geometry" />
        </mxCell>
        <mxCell id="KWCy8iFK6t6dK1so9Yj5-49" value="相关函数&lt;div&gt;代码&lt;/div&gt;" style="text;html=1;align=center;verticalAlign=middle;whiteSpace=wrap;rounded=0;fontSize=16;" vertex="1" parent="KWCy8iFK6t6dK1so9Yj5-60">
          <mxGeometry y="64" width="79.5" height="30" as="geometry" />
        </mxCell>
        <mxCell id="KWCy8iFK6t6dK1so9Yj5-69" value="" style="group;strokeColor=none;dashed=1;strokeWidth=2;" vertex="1" connectable="0" parent="1">
          <mxGeometry x="80" y="370" width="67" height="90" as="geometry" />
        </mxCell>
        <mxCell id="KWCy8iFK6t6dK1so9Yj5-65" value="" style="shape=image;editableCssRules=.*;verticalLabelPosition=bottom;labelBackgroundColor=default;verticalAlign=top;aspect=fixed;imageAspect=0;image=data:image/svg+xml,PHN2ZyB4bWxucz0iaHR0cDovL3d3dy53My5vcmcvMjAwMC9zdmciIHZpZXdCb3g9Ii0wLjUgLTAuNSAyNS44NjcgMjgiIGhlaWdodD0iMjgiIHdpZHRoPSIyNS44NjciPiYjeGE7CSAgPHN0eWxlIHR5cGU9InRleHQvY3NzIj4uc3QwIHsgc3RvcC1jb2xvcjogcmdiKDkxLCAxMTUsIDEzOSk7IH0gLnN0MSB7IHN0b3AtY29sb3I6IHJnYigzNCwgNTMsIDcyKTsgfSA8L3N0eWxlPiYjeGE7CTxkZWZzPiYjeGE7CQk8bGluZWFyR3JhZGllbnQgZ3JhZGllbnRVbml0cz0idXNlclNwYWNlT25Vc2UiIHkyPSIyMy42MTMiIHgyPSIyMy4yMjciIHkxPSIzLjQ3NCIgeDE9IjEuODQ2IiBpZD0iQSI+JiN4YTsJCQk8c3RvcCBjbGFzcz0ic3QwIi8+JiN4YTsJCQk8c3RvcCBjbGFzcz0ic3QxIiBvZmZzZXQ9IjEiLz4mI3hhOwkJPC9saW5lYXJHcmFkaWVudD4mI3hhOwk8L2RlZnM+JiN4YTsJPHBhdGggZmlsbD0idXJsKCNBKSIgZD0iTTEzLjM5IDI3LjVoLTEuOTE1Yy0uNjU2IDAtMS4yNTctLjIxOS0xLjgwMy0uNjU2YTIuNDYgMi40NiAwIDAgMS0uOTMxLTEuNTg1bC0uMzgzLTEuODA0LTIuMzUtMS40MjMtMS42NDEuNzFhMy42MSAzLjYxIDAgMCAxLTEuMDQuMTY1Yy0uNTA5IDAtMS4wMDMtLjEyOC0xLjQ3Ny0uMzgzLS40NTItLjI3MS0uODEzLS42NzEtMS4wMzgtMS4xNDhsLTEuMDM5LTIuMDIzYy0uMTY5LS4zNzktLjI2Mi0uNzg5LS4yNzMtMS4yMDRhMi43NSAyLjc1IDAgMCAxIDEuMTQ4LTIuMjk2bDEuMjU4LS45Mjl2LTIuODQ1bC0xLjMxMi0uOTgzQy0uMTM2IDEwLjU0Ni0uNSA5Ljc5OS0uNSA4Ljg1MmMwLS4zNjYuMDkxLS43NjcuMjczLTEuMjA0bDEuMDQtMi4wMjNjLjI1NS0uNTExLjYtLjg5MyAxLjAzOC0xLjE0OC40NzQtLjI1NS45NjgtLjM4MyAxLjQ3Ny0uMzgzLjQwMiAwIC43NDcuMDc0IDEuMDQuMjE5bDEuNjQxLjY1NiAyLjM1LTEuNDIzLjM4My0xLjgwMkEyLjY4IDIuNjggMCAwIDEgOS43MjcuMTU2YTIuNjEgMi42MSAwIDAgMSAxLjc1LS42NTZoMS45MTNhMi42MSAyLjYxIDAgMCAxIDEuNzUuNjU2Yy41MTEuNDAzLjg0LjkyOS45ODUgMS41ODZsLjMyNyAxLjgwNiAyLjQwNiAxLjQyMSAxLjY0Mi0uNjU2Yy4yOTEtLjE0NS42MzctLjIxOSAxLjA0LS4yMTlhMi43NyAyLjc3IDAgMCAxIDEuNDIxLjM4M2MuNDczLjI1NS44NC42MzcgMS4wOTQgMS4xNDhsLjk4NSAyLjAyM2MuMjE3LjM2Ni4zMjcuNzg0LjMyNyAxLjI1OCAwIC45MS0uMzgzIDEuNjQyLTEuMTQ4IDIuMTg4bC0xLjMxMi45ODV2Mi44NDRsMS4zMTMuOTI4Yy43NjUuNTg1IDEuMTQ4IDEuMzMyIDEuMTQ4IDIuMjQzIDAgLjQzOC0uMTEuODU4LS4zMjkgMS4yNThsLS45ODMgMi4wMjNjLS4yNTYuNTExLS42MTkuODkyLTEuMDk0IDEuMTQ4LS40MzcuMjU2LS45MS4zODMtMS40MjMuMzgzLS4zNjQgMC0uNzEtLjA1NC0xLjAzOC0uMTY1bC0xLjY0Mi0uNzEtMi40MDYgMS40MjMtLjMyNyAxLjgwMmMtLjE0Ny42NTgtLjQ3NCAxLjE4Ni0uOTg1IDEuNTg3YTIuNjEgMi42MSAwIDAgMS0xLjc1LjY1NnptLTcuMzgzLTguMjU4Yy40NzQgMCAuOTQ5LjE0NyAxLjQyMy40MzhsMi40MDYgMS40MjNjLjczLjQzOCAxLjE0OCAxLjA0IDEuMjU4IDEuODA0bC4zODIgMS44MDRoMS45MTVsLjMyOS0xLjgwNGMuMTgyLS44MDIuNjItMS40MDQgMS4zMTMtMS44MDRsMi4zNTItMS40MjNhMy4wNiAzLjA2IDAgMCAxIDEuNTI5LS40MzdjLjE4NCAwIC4zNDYuMDE3LjQ5NC4wNTRhNC4xNyA0LjE3IDAgMCAxIC40OTIuMTY1bDEuNjQyLjY1Ni45ODMtMi4wMjMtMS4yNTgtLjkyOWMtLjc2NS0uNTg0LTEuMTQ4LTEuMzMtMS4xNDgtMi4yNDJ2LTIuODQ1YzAtLjkxLjM4My0xLjY1NyAxLjE0OC0yLjI0bDEuMjU4LS45MzEtLjk4NS0yLjAyMy0xLjY0LjcxYy0uMzM1LjExMS0uNjg2LjE2Ni0xLjA0LjE2NS0uNTgzIDAtMS4wNzUtLjEyOC0xLjQ3Ny0uMzgzbC0yLjM1LTEuNDc3YTIuNjggMi42OCAwIDAgMS0xLjMxMi0xLjgwNEwxMy4zOSAyLjI5aC0xLjkxNWwtLjM4MiAxLjgwNGMtLjExLjc2Ni0uNTI4IDEuMzY3LTEuMjU4IDEuODA0TDcuNDgzIDcuMzc1Yy0uNDAxLjI1NS0uODkzLjM4My0xLjQ3NS4zODMtLjMyOSAwLS42OTMtLjA1Ni0xLjA5NC0uMTY1bC0xLjY0MS0uNzEtLjk4NSAyLjAyMyAxLjMxMy45MjljLjc2Ny41ODUgMS4xNSAxLjMzIDEuMTUgMi4yNDR2Mi44NDRjMCAuOTEtLjM4MyAxLjY1Ny0xLjE0OCAyLjI0bC0xLjMxMi45MzEgMS4wMzggMi4wMjMgMS42NDEtLjY1NmMuMjktLjE0NS42MzctLjIxOSAxLjA0LS4yMTl6bTYuNC0uMTY1YTUuNTcgNS41NyAwIDAgMS0yLjE4Ny0uNDM3Yy0uNjUzLS4yODktMS4yNDYtLjY5Ny0xLjc1LTEuMjAyYTUuNzcgNS43NyAwIDAgMS0xLjIwNC0xLjc1IDUuNTggNS41OCAwIDAgMS0uNDM3LTIuMTg3IDUuMjEgNS4yMSAwIDAgMSAuNDM4LTIuMTMzYy4yOTItLjY5My42OTMtMS4yOTUgMS4yMDQtMS44MDRzMS4wOTQtLjkxIDEuNzUtMS4yMDRhNS42IDUuNiAwIDAgMSAyLjE4OC0uNDM3Yy43NjUgMCAxLjQ5NS4xNDcgMi4xODguNDM4czEuMjk1LjY5MyAxLjgwNCAxLjIwNC45MSAxLjExMSAxLjIwNCAxLjgwNGMuMjkxLjY1Ni40MzggMS4zNjguNDM4IDIuMTMzYTUuNiA1LjYgMCAwIDEtLjQzNyAyLjE4OGMtLjI5LjY1My0uNjk4IDEuMjQ2LTEuMjA0IDEuNzUtLjUxMS41MTEtMS4xMTEuOTEtMS44MDQgMS4yMDRzLTEuNDIzLjQzNi0yLjE4Ny40MzZ6bTAtOC4zNjVjLS43NjcgMC0xLjQyMy4yNzEtMS45NjkuODE5LS4yNjQuMjU1LS40NzMuNTYxLS42MTQuODk5cy0uMjExLjcwMy0uMjA2IDEuMDY5YzAgLjc2Ny4yNzMgMS40MjMuODIxIDEuOTY5czEuMjAyLjgyMSAxLjk2OS44MjFjLjgwMiAwIDEuNDc3LS4yNzMgMi4wMjMtLjgyMXMuODIxLTEuMjA0LjgyMS0xLjk2OS0uMjczLTEuNDIzLS44MjEtMS45NjlhMi43NSAyLjc1IDAgMCAwLS45MjctLjYyYy0uMzQ4LS4xNDEtLjcyMS0uMjA4LTEuMDk2LS4xOTl6Ii8+JiN4YTs8L3N2Zz4=;" vertex="1" parent="KWCy8iFK6t6dK1so9Yj5-69">
          <mxGeometry x="11.210000000000008" width="44.57" height="48" as="geometry" />
        </mxCell>
        <mxCell id="KWCy8iFK6t6dK1so9Yj5-67" value="缺陷定位模块" style="text;html=1;align=center;verticalAlign=middle;whiteSpace=wrap;rounded=0;fontSize=16;" vertex="1" parent="KWCy8iFK6t6dK1so9Yj5-69">
          <mxGeometry y="60" width="67" height="30" as="geometry" />
        </mxCell>
        <mxCell id="KWCy8iFK6t6dK1so9Yj5-70" value="" style="group;strokeColor=none;dashed=1;strokeWidth=2;" vertex="1" connectable="0" parent="1">
          <mxGeometry x="80" y="270" width="70" height="90" as="geometry" />
        </mxCell>
        <mxCell id="KWCy8iFK6t6dK1so9Yj5-64" value="" style="shape=actor;whiteSpace=wrap;html=1;" vertex="1" parent="KWCy8iFK6t6dK1so9Yj5-70">
          <mxGeometry x="15" width="40" height="60" as="geometry" />
        </mxCell>
        <mxCell id="KWCy8iFK6t6dK1so9Yj5-68" value="用户输入" style="text;html=1;align=center;verticalAlign=middle;whiteSpace=wrap;rounded=0;fontSize=15;" vertex="1" parent="KWCy8iFK6t6dK1so9Yj5-70">
          <mxGeometry y="60" width="70" height="30" as="geometry" />
        </mxCell>
        <mxCell id="KWCy8iFK6t6dK1so9Yj5-73" value="" style="endArrow=classic;html=1;rounded=0;edgeStyle=elbowEdgeStyle;" edge="1" parent="1">
          <mxGeometry width="50" height="50" relative="1" as="geometry">
            <mxPoint x="150" y="320" as="sourcePoint" />
            <mxPoint x="180" y="370" as="targetPoint" />
          </mxGeometry>
        </mxCell>
        <mxCell id="KWCy8iFK6t6dK1so9Yj5-74" value="" style="endArrow=classic;html=1;rounded=0;edgeStyle=elbowEdgeStyle;" edge="1" parent="1">
          <mxGeometry width="50" height="50" relative="1" as="geometry">
            <mxPoint x="147" y="430" as="sourcePoint" />
            <mxPoint x="180" y="380" as="targetPoint" />
          </mxGeometry>
        </mxCell>
        <mxCell id="KWCy8iFK6t6dK1so9Yj5-75" value="" style="endArrow=classic;html=1;rounded=0;edgeStyle=orthogonalEdgeStyle;" edge="1" parent="1">
          <mxGeometry width="50" height="50" relative="1" as="geometry">
            <mxPoint x="270" y="380" as="sourcePoint" />
            <mxPoint x="310" y="380" as="targetPoint" />
          </mxGeometry>
        </mxCell>
        <mxCell id="KWCy8iFK6t6dK1so9Yj5-78" value="多路召回&lt;div style=&quot;font-size: 16px;&quot;&gt;检索引擎&lt;/div&gt;" style="rounded=1;whiteSpace=wrap;html=1;fontSize=16;fillColor=#fff2cc;strokeColor=#d6b656;fontStyle=1" vertex="1" parent="1">
          <mxGeometry x="490" y="250" width="70" height="430" as="geometry" />
        </mxCell>
        <mxCell id="KWCy8iFK6t6dK1so9Yj5-80" value="结构匹配" style="text;html=1;align=center;verticalAlign=middle;whiteSpace=wrap;rounded=0;fontSize=16;" vertex="1" parent="1">
          <mxGeometry x="405.52" y="350" width="70" height="30" as="geometry" />
        </mxCell>
        <mxCell id="KWCy8iFK6t6dK1so9Yj5-87" value="静态分析" style="text;html=1;align=center;verticalAlign=middle;whiteSpace=wrap;rounded=0;fontSize=16;" vertex="1" parent="1">
          <mxGeometry x="395.27" y="590" width="90.5" height="30" as="geometry" />
        </mxCell>
        <mxCell id="KWCy8iFK6t6dK1so9Yj5-86" value="搜索引擎" style="text;html=1;align=center;verticalAlign=middle;whiteSpace=wrap;rounded=0;fontSize=16;" vertex="1" parent="1">
          <mxGeometry x="395.27" y="257.4" width="90.5" height="30" as="geometry" />
        </mxCell>
        <mxCell id="KWCy8iFK6t6dK1so9Yj5-10" value="" style="verticalLabelPosition=bottom;aspect=fixed;html=1;shape=mxgraph.salesforce.web;fillColor=#60a917;fontColor=#ffffff;strokeColor=#2D7600;" vertex="1" parent="1">
          <mxGeometry x="324.02" y="250.00000000000003" width="60" height="47.400000000000006" as="geometry" />
        </mxCell>
        <mxCell id="KWCy8iFK6t6dK1so9Yj5-58" value="Web数据" style="text;html=1;align=center;verticalAlign=middle;whiteSpace=wrap;rounded=0;fontSize=16;" vertex="1" parent="1">
          <mxGeometry x="310" y="300" width="70" height="30" as="geometry" />
        </mxCell>
        <mxCell id="KWCy8iFK6t6dK1so9Yj5-83" value="" style="endArrow=classic;html=1;rounded=0;entryX=0.014;entryY=0.34;entryDx=0;entryDy=0;entryPerimeter=0;edgeStyle=orthogonalEdgeStyle;" edge="1" parent="1">
          <mxGeometry width="50" height="50" relative="1" as="geometry">
            <mxPoint x="389.02" y="287.4" as="sourcePoint" />
            <mxPoint x="490" y="287.4" as="targetPoint" />
          </mxGeometry>
        </mxCell>
        <mxCell id="KWCy8iFK6t6dK1so9Yj5-56" value="" style="group;strokeColor=none;dashed=1;strokeWidth=2;" vertex="1" connectable="0" parent="1">
          <mxGeometry x="190" y="470" width="66.5" height="103.16000000000003" as="geometry" />
        </mxCell>
        <mxCell id="KWCy8iFK6t6dK1so9Yj5-2" value="" style="sketch=0;pointerEvents=1;shadow=0;dashed=0;html=1;strokeColor=#BD7000;fillColor=#f0a30a;labelPosition=center;verticalLabelPosition=bottom;verticalAlign=top;outlineConnect=0;align=center;shape=mxgraph.office.concepts.documents;fontColor=#000000;fontSize=16;" vertex="1" parent="KWCy8iFK6t6dK1so9Yj5-56">
          <mxGeometry x="6.5" width="53.5" height="60" as="geometry" />
        </mxCell>
        <mxCell id="KWCy8iFK6t6dK1so9Yj5-6" value="SQL相关&lt;div&gt;文档片段&lt;/div&gt;" style="text;html=1;align=center;verticalAlign=middle;whiteSpace=wrap;rounded=0;fontSize=16;" vertex="1" parent="KWCy8iFK6t6dK1so9Yj5-56">
          <mxGeometry y="73.16000000000003" width="66.5" height="30" as="geometry" />
        </mxCell>
        <mxCell id="KWCy8iFK6t6dK1so9Yj5-57" value="" style="group;strokeColor=none;dashed=1;strokeWidth=2;" vertex="1" connectable="0" parent="1">
          <mxGeometry x="300" y="475" width="100" height="100" as="geometry" />
        </mxCell>
        <mxCell id="KWCy8iFK6t6dK1so9Yj5-9" value="" style="strokeWidth=5;html=1;shape=mxgraph.flowchart.database;whiteSpace=wrap;fontSize=16;fillColor=default;fontColor=#000000;strokeColor=#FFB570;" vertex="1" parent="KWCy8iFK6t6dK1so9Yj5-57">
          <mxGeometry x="24" width="50.5" height="61.99" as="geometry" />
        </mxCell>
        <mxCell id="KWCy8iFK6t6dK1so9Yj5-35" value="向量数据库" style="text;html=1;align=center;verticalAlign=middle;resizable=0;points=[];autosize=1;strokeColor=none;fillColor=none;fontSize=16;" vertex="1" parent="KWCy8iFK6t6dK1so9Yj5-57">
          <mxGeometry y="70" width="100" height="30" as="geometry" />
        </mxCell>
        <mxCell id="KWCy8iFK6t6dK1so9Yj5-81" value="" style="endArrow=classic;html=1;rounded=0;entryX=-0.016;entryY=0.64;entryDx=0;entryDy=0;entryPerimeter=0;edgeStyle=orthogonalEdgeStyle;" edge="1" parent="KWCy8iFK6t6dK1so9Yj5-57" target="KWCy8iFK6t6dK1so9Yj5-78">
          <mxGeometry width="50" height="50" relative="1" as="geometry">
            <mxPoint x="99.5" y="50" as="sourcePoint" />
            <mxPoint x="149.5" as="targetPoint" />
          </mxGeometry>
        </mxCell>
        <mxCell id="KWCy8iFK6t6dK1so9Yj5-77" value="" style="endArrow=classic;html=1;rounded=0;edgeStyle=orthogonalEdgeStyle;" edge="1" parent="1">
          <mxGeometry width="50" height="50" relative="1" as="geometry">
            <mxPoint x="268.52" y="524.66" as="sourcePoint" />
            <mxPoint x="308.52" y="524.66" as="targetPoint" />
          </mxGeometry>
        </mxCell>
        <mxCell id="KWCy8iFK6t6dK1so9Yj5-85" value="向量相似性&lt;div&gt;匹配&lt;/div&gt;" style="text;html=1;align=center;verticalAlign=middle;whiteSpace=wrap;rounded=0;fontSize=16;" vertex="1" parent="1">
          <mxGeometry x="395.27" y="490" width="90.5" height="30" as="geometry" />
        </mxCell>
        <mxCell id="KWCy8iFK6t6dK1so9Yj5-95" value="" style="group;strokeColor=none;dashed=1;strokeWidth=2;" vertex="1" connectable="0" parent="1">
          <mxGeometry x="610" y="481" width="66.5" height="103.16000000000003" as="geometry" />
        </mxCell>
        <mxCell id="KWCy8iFK6t6dK1so9Yj5-96" value="" style="sketch=0;pointerEvents=1;shadow=0;dashed=0;html=1;strokeColor=#BD7000;fillColor=#f0a30a;labelPosition=center;verticalLabelPosition=bottom;verticalAlign=top;outlineConnect=0;align=center;shape=mxgraph.office.concepts.documents;fontColor=#000000;fontSize=16;" vertex="1" parent="KWCy8iFK6t6dK1so9Yj5-95">
          <mxGeometry x="6.5" width="53.5" height="57.01" as="geometry" />
        </mxCell>
        <mxCell id="KWCy8iFK6t6dK1so9Yj5-97" value="相关文本" style="text;html=1;align=center;verticalAlign=middle;whiteSpace=wrap;rounded=0;fontSize=16;" vertex="1" parent="KWCy8iFK6t6dK1so9Yj5-95">
          <mxGeometry y="60.00000000000003" width="66.5" height="30" as="geometry" />
        </mxCell>
        <mxCell id="KWCy8iFK6t6dK1so9Yj5-98" value="" style="group" vertex="1" connectable="0" parent="1">
          <mxGeometry x="600" y="320" width="80" height="80" as="geometry" />
        </mxCell>
        <mxCell id="KWCy8iFK6t6dK1so9Yj5-91" value="" style="strokeWidth=2;html=1;shape=mxgraph.flowchart.multi-document;whiteSpace=wrap;" vertex="1" parent="KWCy8iFK6t6dK1so9Yj5-98">
          <mxGeometry x="15.5" width="55" height="40" as="geometry" />
        </mxCell>
        <mxCell id="KWCy8iFK6t6dK1so9Yj5-92" value="相似SQL转换样例" style="text;html=1;align=center;verticalAlign=middle;whiteSpace=wrap;rounded=0;fontSize=16;" vertex="1" parent="KWCy8iFK6t6dK1so9Yj5-98">
          <mxGeometry y="50" width="80" height="30" as="geometry" />
        </mxCell>
        <mxCell id="KWCy8iFK6t6dK1so9Yj5-99" value="" style="endArrow=classic;html=1;rounded=0;entryX=0;entryY=0.5;entryDx=0;entryDy=0;entryPerimeter=0;" edge="1" parent="1" target="KWCy8iFK6t6dK1so9Yj5-91">
          <mxGeometry width="50" height="50" relative="1" as="geometry">
            <mxPoint x="570" y="340" as="sourcePoint" />
            <mxPoint x="600" y="290" as="targetPoint" />
          </mxGeometry>
        </mxCell>
        <mxCell id="KWCy8iFK6t6dK1so9Yj5-100" value="" style="endArrow=classic;html=1;rounded=0;exitX=1.029;exitY=0.629;exitDx=0;exitDy=0;exitPerimeter=0;edgeStyle=orthogonalEdgeStyle;" edge="1" parent="1" source="KWCy8iFK6t6dK1so9Yj5-78">
          <mxGeometry width="50" height="50" relative="1" as="geometry">
            <mxPoint x="550" y="510" as="sourcePoint" />
            <mxPoint x="610" y="520" as="targetPoint" />
          </mxGeometry>
        </mxCell>
        <mxCell id="KWCy8iFK6t6dK1so9Yj5-101" value="" style="endArrow=classic;html=1;rounded=0;entryX=-0.004;entryY=0.588;entryDx=0;entryDy=0;entryPerimeter=0;exitX=1.019;exitY=0.86;exitDx=0;exitDy=0;exitPerimeter=0;" edge="1" parent="1" source="KWCy8iFK6t6dK1so9Yj5-78" target="KWCy8iFK6t6dK1so9Yj5-47">
          <mxGeometry width="50" height="50" relative="1" as="geometry">
            <mxPoint x="550" y="670" as="sourcePoint" />
            <mxPoint x="600" y="620" as="targetPoint" />
          </mxGeometry>
        </mxCell>
        <mxCell id="KWCy8iFK6t6dK1so9Yj5-102" value="" style="endArrow=classic;html=1;rounded=0;" edge="1" parent="1">
          <mxGeometry width="50" height="50" relative="1" as="geometry">
            <mxPoint x="400" y="380" as="sourcePoint" />
            <mxPoint x="490" y="380" as="targetPoint" />
          </mxGeometry>
        </mxCell>
        <mxCell id="KWCy8iFK6t6dK1so9Yj5-76" value="" style="endArrow=classic;html=1;rounded=0;" edge="1" parent="1">
          <mxGeometry width="50" height="50" relative="1" as="geometry">
            <mxPoint x="160" y="525" as="sourcePoint" />
            <mxPoint x="190" y="525" as="targetPoint" />
          </mxGeometry>
        </mxCell>
        <mxCell id="KWCy8iFK6t6dK1so9Yj5-103" value="" style="group" vertex="1" connectable="0" parent="1">
          <mxGeometry x="70" y="470" width="90" height="100" as="geometry" />
        </mxCell>
        <mxCell id="KWCy8iFK6t6dK1so9Yj5-1" value="" style="sketch=0;outlineConnect=0;fillColor=#f0a30a;strokeColor=#BD7000;dashed=0;verticalLabelPosition=bottom;verticalAlign=top;align=center;html=1;fontSize=16;fontStyle=0;aspect=fixed;pointerEvents=1;shape=mxgraph.aws4.document;fontColor=#000000;" vertex="1" parent="KWCy8iFK6t6dK1so9Yj5-103">
          <mxGeometry x="23.25" width="43.5" height="59.53" as="geometry" />
        </mxCell>
        <mxCell id="KWCy8iFK6t6dK1so9Yj5-4" value="目标数据库&lt;div&gt;文档&lt;/div&gt;" style="text;html=1;align=center;verticalAlign=middle;whiteSpace=wrap;rounded=0;fontSize=16;" vertex="1" parent="KWCy8iFK6t6dK1so9Yj5-103">
          <mxGeometry y="70" width="90" height="30" as="geometry" />
        </mxCell>
      </root>
    </mxGraphModel>
  </diagram>
</mxfile>
